Coordinates
version=1
nRows=25
nColumns=23
inDegrees=yes

Units are S.I. units (second, meters, Newtons, ...)
If the header above contains a line with 'inDegrees', this indicates whether rotational values are in degrees (yes) or radians (no).

endheader
time	pelvis_tilt	pelvis_list	pelvis_rotation	pelvis_tx	pelvis_ty	pelvis_tz	hip_flexion_r	hip_adduction_r	hip_rotation_r	knee_angle_r	knee_angle_r_beta	ankle_angle_r	subtalar_angle_r	mtp_angle_r	hip_flexion_l	hip_adduction_l	hip_rotation_l	knee_angle_l	knee_angle_l_beta	ankle_angle_l	subtalar_angle_l	mtp_angle_l
     22.50000000	     -7.28334081	      8.71723880	     10.69945270	      2.13368391	      0.99005689	      1.07861122	     -1.18613491	    -10.60030562	    -11.31730483	     72.26724959	      1.26130145	     -6.34197153	     -7.22525532	      0.00000000	     29.60901740	     14.88280787	     -3.63043265	     25.47045265	      0.44454326	      5.31765008	      4.29061710	      0.00000000
     22.50666667	     -7.18187508	      8.99412051	     11.06936717	      2.13225603	      0.98494032	      1.07826561	      0.26857830	    -11.35536413	    -11.33881743	     75.83410483	      1.32355481	     -5.68368330	     -7.81264800	      0.00000000	     29.98782187	     15.27630749	     -3.35080235	     28.48860531	      0.49721996	      5.83599732	      3.11256855	      0.00000000
     22.51333333	     -7.12465536	      9.25891123	     11.33229384	      2.13075568	      0.97989494	      1.07804599	      1.86340702	    -12.13753601	    -11.21347516	     79.27256223	      1.38356722	     -5.01882233	     -8.46886561	      0.00000000	     30.32953517	     15.62172714	     -3.18928889	     31.41211477	      0.54824483	      6.81801847	      2.05988033	      0.00000000
     22.52000000	     -7.11637065	      9.50722417	     11.48999323	      2.12921447	      0.97500091	      1.07793951	      3.61101470	    -12.92771241	    -10.93017951	     82.56359992	      1.44100666	     -4.34306803	     -9.15494957	      0.00000000	     30.61088958	     15.89684702	     -3.16081124	     34.16992868	      0.59637776	      8.14260783	      1.21089560	      0.00000000
     22.52666667	     -7.11223718	      9.72299093	     11.56842634	      2.12760674	      0.97043596	      1.07793357	      5.45260126	    -13.69558286	    -10.53107081	     85.66095892	      1.49506577	     -3.66122271	     -9.82526160	      0.00000000	     30.75043970	     16.10197452	     -3.15589909	     36.69193624	      0.64039510	      9.75227807	      0.59228628	      0.00000000
     22.53333333	     -7.09095288	      9.92421781	     11.56771762	      2.12601646	      0.96631158	      1.07803724	      7.36453732	    -14.42420122	     -9.99494622	     88.53922211	      1.54530094	     -2.94725360	    -10.45941737	      0.00000000	     30.69487774	     16.23905251	     -3.16338802	     38.92199715	      0.67931700	     11.55117780	      0.20333059	      0.00000000
     22.54000000	     -7.05600462	     10.09024564	     11.52181772	      2.12442476	      0.96265711	      1.07821650	      9.33178126	    -15.09076623	     -9.38167762	     91.17161064	      1.59124479	     -2.24864262	    -10.99718034	      0.00000000	     30.44031824	     16.31027725	     -3.12396481	     40.84325851	      0.71284934	     13.41465017	      0.03618074	      0.00000000
     22.54666667	     -6.96131509	     10.23655882	     11.42445282	      2.12292444	      0.95961586	      1.07845937	     11.29080819	    -15.69284257	     -8.69415610	     93.52254073	      1.63227626	     -1.53547990	    -11.44323622	      0.00000000	     29.91572674	     16.31760167	     -3.04316966	     42.42341913	      0.74042834	     15.30867629	      0.06467753	      0.00000000
     22.55333333	     -6.80247741	     10.34983348	     11.28101840	      2.12154563	      0.95720610	      1.07877382	     13.22322486	    -16.20397747	     -7.95948605	     95.57450489	      1.66808979	     -0.82864604	    -11.78438570	      0.00000000	     29.11850245	     16.24393843	     -2.92907158	     43.66258505	      0.76205587	     17.14681814	      0.27231951	      0.00000000
     22.56000000	     -6.29646023	     10.38191249	     11.19219014	      2.12047491	      0.95601189	      1.07893044	     14.68555002	    -16.53581188	     -7.39566683	     97.17052941	      1.69594567	     -0.19426503	    -12.15393732	      0.00000000	     27.67783999	     16.14770863	     -2.41476133	     44.48719884	      0.77644809	     18.87461632	      0.25878675	      0.00000000
     22.56666667	     -6.33897429	     10.42787746	     10.83175065	      2.11922702	      0.95439074	      1.07948321	     17.01760109	    -16.85848572	     -6.36383142	     98.71394183	      1.72288330	      0.56336498	    -12.14958331	      0.00000000	     26.78585852	     15.81962942	     -2.65003620	     45.13407671	      0.78773824	     20.57728766	      1.15671704	      0.00000000
     22.57333333	     -6.11882612	     10.34037615	     10.55127319	      2.11832263	      0.95381714	      1.07987353	     18.93555601	    -16.95810507	     -5.57584323	     99.79487742	      1.74174919	      1.20124177	    -12.26102375	      0.00000000	     25.39021751	     15.41925751	     -2.55190883	     45.43731259	      0.79303071	     22.08957694	      1.82385592	      0.00000000
     22.58000000	     -5.83408689	     10.17567492	     10.33636175	      2.11765957	      0.95396500	      1.08001688	     20.67848296	    -16.97275601	     -4.96093319	    100.49251824	      1.75392532	      1.79073244	    -12.34725231	      0.00000000	     23.73297136	     15.03907582	     -2.17928881	     45.41209693	      0.79259061	     23.37950426	      2.20138779	      0.00000000
     22.58666667	     -5.72754682	      9.97607208	      9.90750897	      2.11716493	      0.95438376	      1.08055013	     22.68882957	    -16.80508814	     -4.14254182	    100.93750139	      1.76169174	      2.42433772	    -12.21243429	      0.00000000	     22.16788154	     14.38057585	     -2.41993137	     45.14315306	      0.78789666	     24.54675729	      3.36937616	      0.00000000
     22.59333333	     -5.61175847	      9.66864805	      9.62234603	      2.11690688	      0.95541358	      1.08072265	     24.51310017	    -16.55302038	     -3.59707676	    100.99838517	      1.76275436	      2.98780341	    -12.18889896	      0.00000000	     20.43543757	     13.82886181	     -2.16486966	     44.59777793	      0.77837806	     25.46490362	      3.84371834	      0.00000000
     22.60000000	     -5.54768048	      9.30367385	      9.21064431	      2.11690212	      0.95689743	      1.08109817	     26.33889958	    -16.14630313	     -3.04494539	    100.73611432	      1.75817687	      3.50862508	    -12.04081185	      0.00000000	     18.65249224	     13.10997824	     -2.20284053	     43.80226255	      0.76449370	     26.08465010	      4.68971657	      0.00000000
     22.60666667	     -5.58414412	      8.85184567	      8.83589910	      2.11710046	      0.95877341	      1.08141401	     28.13601597	    -15.62668828	     -2.64024732	    100.14701883	      1.74789521	      4.03869422	    -11.94276354	      0.00000000	     16.88357163	     12.39608581	     -2.08241074	     42.80279265	      0.74704966	     26.50815649	      5.31912639	      0.00000000
     22.61333333	     -5.64665491	      8.33468294	      8.41402834	      2.11757853	      0.96111521	      1.08182871	     29.82174817	    -14.97912889	     -2.33371913	     99.22607177	      1.73182166	      4.52778758	    -11.84619391	      0.00000000	     15.05454965	     11.60588650	     -2.02805194	     41.59595797	      0.72598642	     26.64636906	      5.94661886	      0.00000000
     22.62000000	     -5.52382771	      7.66819015	      8.01105149	      2.11844134	      0.96430172	      1.08230637	     31.06800426	    -14.11348536	     -2.27505703	     97.88359317	      1.70839098	      4.91991435	    -11.89377697	      0.00000000	     12.95044841	     10.64023870	     -1.93939176	     40.21784844	      0.70193387	     26.62170848	      6.74931653	      0.00000000
     22.62666667	     -6.18829546	      7.14506614	      7.84567067	      2.11918415	      0.96661188	      1.08229521	     33.08832917	    -13.67519544	     -2.30784388	     96.46473969	      1.68362732	      5.38757811	    -11.77553825	      0.00000000	     11.69019740	     10.08198402	     -1.58600410	     38.82810839	      0.67767833	     26.42335636	      7.15738155	      0.00000000
     22.63333333	     -5.65092273	      6.22795468	      7.23346594	      2.12085130	      0.97145381	      1.08326923	     33.47619753	    -12.25133924	     -2.42876143	     94.33092243	      1.64638518	      5.80804707	    -11.93052263	      0.00000000	      8.98343378	      8.81369040	     -1.53934613	     36.98422844	      0.64549656	     25.38863983	      7.46744254	      0.00000000
     22.64000000	     -5.79009439	      5.48968615	      6.77451614	      2.12239042	      0.97547401	      1.08392054	     34.52492368	    -11.21567166	     -2.54141348	     92.12785899	      1.60793447	      6.23625771	    -11.96101375	      0.00000000	      7.02838235	      7.92792768	     -1.38302666	     35.17201856	      0.61386753	     24.22523996	      7.57826991	      0.00000000
     22.64666667	     -6.20080657	      4.85692485	      6.18561490	      2.12401235	      0.97929523	      1.08481734	     35.79215691	    -10.17717376	     -2.46941880	     89.74476597	      1.56634165	      6.66198402	    -11.97747854	      0.00000000	      5.36694142	      7.17862377	     -1.45201769	     33.30093015	      0.58121088	     22.68926213	      7.54603514	      0.00000000
     22.65333333	     -6.20135053	      4.00470828	      5.81881473	      2.12608600	      0.98416438	      1.08544598	     36.24189413	     -9.04032568	     -2.87856912	     86.89766737	      1.51665041	      7.00056755	    -12.04591963	      0.00000000	      3.22817867	      6.24957248	     -1.11470855	     31.28339347	      0.54599822	     20.64779456	      7.25211813	      0.00000000
     22.66000000	     -6.43796963	      3.27014510	      5.28889832	      2.12819602	      0.98872160	      1.08627697	     36.88958393	     -7.89608470	     -3.03173658	     83.90046767	      1.46433940	      7.35448076	    -12.05615131	      0.00000000	      1.37659433	      5.45034163	     -1.10106569	     29.26848062	      0.51083135	     18.29123260	      6.93046045	      0.00000000
